HIERARCHY
ROOT Hips
{
 OFFSET 0.000000 0.000000 0.000000
 CHANNELS 6 Xposition Yposition Zposition Yrotation Xrotation Zrotation
 JOINT Chest
 {
  OFFSET 0.000000 9.585900 0.002600
  CHANNELS 3 Yrotation Xrotation Zrotation
  JOINT Chest2
  {
   OFFSET 0.000000 9.601200 -0.005300
   CHANNELS 3 Yrotation Xrotation Zrotation
   JOINT Chest3
   {
    OFFSET 0.000000 9.561800 0.000000
    CHANNELS 3 Yrotation Xrotation Zrotation
    JOINT Chest4
    {
     OFFSET 0.000000 9.552100 0.000000
     CHANNELS 3 Yrotation Xrotation Zrotation
     JOINT Neck
     {
      OFFSET 0.000000 14.453000 0.000000
      CHANNELS 3 Yrotation Xrotation Zrotation
      JOINT Head
      {
       OFFSET 0.000000 8.936500 -0.011300
       CHANNELS 3 Yrotation Xrotation Zrotation
       End Site
       {
        OFFSET 0.000000 17.073600 -0.006000
       }
      }
     }
     JOINT RightCollar
     {
      OFFSET -2.921100 9.558500 0.000000
      CHANNELS 3 Yrotation Xrotation Zrotation
      JOINT RightShoulder
      {
       OFFSET -13.519700 0.000000 0.000000
       CHANNELS 3 Yrotation Xrotation Zrotation
       JOINT RightElbow
       {
        OFFSET 0.000000 -29.696600 0.000000
        CHANNELS 3 Yrotation Xrotation Zrotation
        JOINT RightWrist
        {
         OFFSET 0.000000 -24.004700 0.000000
         CHANNELS 3 Yrotation Xrotation Zrotation
         End Site
         {
          OFFSET 0.000000 -17.728500 0.000000
         }
        }
       }
      }
     }
     JOINT LeftCollar
     {
      OFFSET 2.921100 9.558500 0.000000
      CHANNELS 3 Yrotation Xrotation Zrotation
      JOINT LeftShoulder
      {
       OFFSET 13.519700 0.000000 0.000000
       CHANNELS 3 Yrotation Xrotation Zrotation
       JOINT LeftElbow
       {
        OFFSET 0.000000 -29.696600 0.000000
        CHANNELS 3 Yrotation Xrotation Zrotation
        JOINT LeftWrist
        {
         OFFSET 0.000000 -24.004700 0.000000
         CHANNELS 3 Yrotation Xrotation Zrotation
         End Site
         {
          OFFSET 0.000000 -17.728500 0.000000
         }
        }
       }
      }
     }
    }
   }
  }
 }
 JOINT RightHip
 {
  OFFSET -7.771700 -0.012900 -0.001300
  CHANNELS 3 Yrotation Xrotation Zrotation
  JOINT RightKnee
  {
   OFFSET 0.000000 -40.869800 0.001200
   CHANNELS 3 Yrotation Xrotation Zrotation
   JOINT RightAnkle
   {
    OFFSET 0.000000 -39.717900 0.002100
    CHANNELS 3 Yrotation Xrotation Zrotation
    JOINT RightToe
    {
     OFFSET 0.000000 -4.965400 11.033500
     CHANNELS 3 Yrotation Xrotation Zrotation
     End Site
     {
      OFFSET 0.000000 -1.423100 5.872300
     }
    }
   }
  }
 }
 JOINT LeftHip
 {
  OFFSET 7.771700 -0.012900 -0.001300
  CHANNELS 3 Yrotation Xrotation Zrotation
  JOINT LeftKnee
  {
   OFFSET 0.000000 -40.869800 0.001200
   CHANNELS 3 Yrotation Xrotation Zrotation
   JOINT LeftAnkle
   {
    OFFSET 0.000000 -39.717900 0.002100
    CHANNELS 3 Yrotation Xrotation Zrotation
    JOINT LeftToe
    {
     OFFSET 0.000000 -4.965400 11.033500
     CHANNELS 3 Yrotation Xrotation Zrotation
     End Site
     {
      OFFSET 0.000000 -1.423100 5.872300
     }
    }
   }
  }
 }
}
MOTION
Frames: 13
Frame Time: 0.008333
-208.410544 57.533100 -68.515425 160.374271 -8.903456 0.344654 4.954463 8.424529 0.435974 0.286772 0.507418 -0.046827 0.479671 0.865527 -0.066443 4.404658 7.976337 -0.349099 -0.429869 16.807148 -0.741557 -0.544702 -4.581680 -1.229764 0.692775 7.545554 0.728905 -1.282900 -5.806016 -9.540426 -61.909114 -85.259484 91.598318 -1.553482 2.579477 -19.790986 -5.802424 8.790775 -1.062670 13.000757 -5.039508 4.794985 100.620130 -78.126788 -132.930647 -4.153825 8.701799 6.740579 -17.545370 -62.974995 8.236265 -31.854354 72.809123 -31.814827 -3.000986 -7.467006 -2.354890 -0.382144 0.788300 -0.187035 -0.924393 -65.643265 16.868108 42.682280 65.757731 35.777173 -17.761869 -10.777057 3.324765 -0.027301 -0.826310 -0.070651
-208.410751 57.528860 -68.495877 160.328859 -8.931087 0.341945 5.042224 8.490075 0.416981 0.291003 0.519702 -0.048988 0.445865 0.828294 -0.036117 4.441030 8.099732 -0.389549 -0.437791 16.754424 -0.719592 -0.563419 -4.665245 -1.178752 0.692887 7.519501 0.724048 -1.275328 -5.825541 -9.533827 -61.962573 -85.253667 91.620404 -1.558170 2.572789 -19.776306 -5.818094 8.814760 -1.050209 13.011025 -5.004296 4.780752 100.612629 -78.130050 -132.906908 -4.152275 8.698009 6.741822 -17.513159 -62.945676 8.253636 -31.795976 72.789761 -31.768900 -2.939430 -7.498661 -2.326213 -0.453218 0.845492 -0.219596 -0.965545 -65.616140 16.926732 42.697860 65.738551 35.803171 -17.737756 -10.739746 3.309493 -0.045496 -0.891352 -0.073002
-208.410371 57.525448 -68.481627 160.346121 -8.986174 0.332157 5.063420 8.584401 0.400060 0.285339 0.522043 -0.043098 0.484473 0.887612 -0.065406 4.419337 8.133985 -0.383808 -0.446036 16.695387 -0.701311 -0.581147 -4.757557 -1.138242 0.698412 7.494628 0.721535 -1.281076 -5.874679 -9.517645 -61.637922 -85.254207 91.280897 -1.557719 2.569692 -19.767304 -5.830590 8.836190 -1.040280 13.016703 -4.965233 4.766421 100.571074 -78.137571 -132.849254 -4.154338 8.696118 6.735935 -17.518581 -62.892796 8.246688 -31.781723 72.776721 -31.762679 -2.932932 -7.483142 -2.318819 -0.465302 0.842552 -0.221060 -1.062339 -65.564803 16.982575 42.714510 65.725047 35.826381 -17.735778 -10.759476 3.297128 -0.043834 -0.900918 -0.070358
-208.412883 57.522422 -68.470197 160.348951 -9.047058 0.340861 5.071478 8.662840 0.385386 0.286992 0.527039 -0.043994 0.510334 0.940865 -0.088273 4.419989 8.196281 -0.394966 -0.458591 16.614911 -0.677293 -0.591735 -4.847977 -1.114559 0.708039 7.475089 0.720778 -1.311677 -5.973465 -9.477102 -60.656823 -85.265699 90.311216 -1.552963 2.567604 -19.754406 -5.840879 8.861076 -1.031034 13.016117 -4.924131 4.751839 100.514249 -78.149290 -132.773835 -4.161678 8.696098 6.723366 -17.465578 -62.840087 8.188099 -31.758955 72.765356 -31.740768 -2.932579 -7.473551 -2.315609 -0.477598 0.847182 -0.222217 -1.097783 -65.507580 16.985981 42.756379 65.712313 35.865407 -17.704485 -10.776462 3.298127 -0.044675 -0.912243 -0.072260
-208.418820 57.519487 -68.459210 160.359109 -9.099274 0.362181 5.068685 8.734430 0.355946 0.288586 0.531978 -0.044892 0.513469 0.947728 -0.088834 4.443140 8.301016 -0.423506 -0.479158 16.499662 -0.637472 -0.604251 -4.908699 -1.111243 0.716577 7.465214 0.721836 -1.260454 -5.951242 -9.519078 -61.984644 -85.264102 91.540141 -1.534353 2.622988 -19.725287 -5.853642 8.894073 -1.021445 13.008146 -4.883317 4.737660 100.465499 -78.163914 -132.703646 -4.174043 8.700275 6.707842 -17.401094 -62.800130 8.110980 -31.746006 72.751815 -31.730875 -2.950979 -7.469376 -2.312341 -0.461261 0.857469 -0.220603 -1.155572 -65.461901 16.975565 42.864703 65.690320 35.960466 -17.638221 -10.772430 3.309585 -0.093589 -0.948047 -0.094883
-208.422951 57.516773 -68.447466 160.368491 -9.146474 0.365233 5.080736 8.810647 0.337346 0.292002 0.541993 -0.046562 0.525729 0.976796 -0.099659 4.447023 8.360302 -0.433126 -0.490204 16.441354 -0.623842 -0.631680 -5.025079 -1.082106 0.724649 7.463664 0.723801 -1.226110 -5.977752 -9.529370 -61.598698 -85.295142 91.081372 -1.531229 2.596506 -19.690499 -5.867085 8.930708 -1.011664 12.994523 -4.843356 4.723986 100.419125 -78.184996 -132.634616 -4.188673 8.706961 6.684530 -17.368520 -62.760783 8.068635 -31.733456 72.740505 -31.721822 -2.938697 -7.453745 -2.306584 -0.473253 0.857213 -0.222232 -1.195679 -65.417069 16.979579 42.865276 65.677121 35.972012 -17.633638 -10.790249 3.303933 -0.111935 -0.953770 -0.099734
-208.427939 57.514764 -68.438709 160.372500 -9.204348 0.373382 5.098787 8.896799 0.312458 0.295438 0.551773 -0.048193 0.532551 1.003255 -0.106198 4.451681 8.416320 -0.439985 -0.500955 16.388543 -0.616607 -0.674898 -5.168009 -1.059807 0.735986 7.472423 0.724002 -1.198526 -6.031921 -9.526635 -60.820381 -85.331138 90.228390 -1.526179 2.575158 -19.643192 -5.876831 8.968720 -1.005082 12.975857 -4.801571 4.711884 100.371562 -78.213110 -132.563955 -4.204794 8.713406 6.652096 -17.315457 -62.717559 8.010001 -31.740925 72.735561 -31.730859 -2.938780 -7.430749 -2.302317 -0.476539 0.845454 -0.221515 -1.205174 -65.361843 16.964031 42.861438 65.667022 35.982533 -17.643039 -10.803126 3.286711 -0.101759 -0.964952 -0.087870
-208.432101 57.513544 -68.432898 160.380108 -9.275705 0.376093 5.106633 8.994501 0.295385 0.298850 0.561228 -0.049697 0.525344 0.991261 -0.094895 4.471885 8.503044 -0.459832 -0.511286 16.346431 -0.610817 -0.700080 -5.255752 -1.029884 0.749698 7.497605 0.718576 -1.164483 -6.091613 -9.522195 -60.319866 -85.363513 89.634516 -1.511540 2.589758 -19.579260 -5.882835 9.010868 -1.002080 12.953693 -4.755671 4.700858 100.325821 -78.242263 -132.497528 -4.221705 8.719947 6.614180 -17.273634 -62.655040 7.955418 -31.741346 72.733371 -31.731912 -2.942597 -7.423943 -2.301740 -0.473454 0.843169 -0.219606 -1.229208 -65.293802 16.956284 42.873345 65.657636 36.008578 -17.635282 -10.817279 3.271510 -0.086271 -0.961601 -0.083179
-208.435183 57.511561 -68.420154 160.384100 -9.304040 0.353936 5.124676 9.059727 0.286250 0.295340 0.551407 -0.033136 0.521212 0.983908 -0.086385 4.477752 8.532842 -0.464235 -0.510051 16.402376 -0.636879 -0.732223 -5.375981 -0.987112 0.772046 7.585725 0.693805 -1.121022 -6.157463 -9.510568 -59.679350 -85.404570 88.883930 -1.494282 2.616008 -19.495243 -5.876031 9.102680 -1.020439 12.931570 -4.704594 4.689449 100.280995 -78.269580 -132.436596 -4.240666 8.727522 6.569285 -17.295413 -62.626598 7.979597 -31.735891 72.719985 -31.728877 -2.925139 -7.396140 -2.292075 -0.488824 0.832625 -0.227484 -1.310559 -65.269981 17.007507 42.853948 65.641529 36.020174 -17.611693 -10.828071 3.238522 -0.056455 -0.950670 -0.074530
-208.442099 57.510151 -68.410879 160.375988 -9.337994 0.357574 5.135354 9.102928 0.278264 0.304362 0.569530 -0.042824 0.526385 0.997466 -0.088132 4.494745 8.601842 -0.477266 -0.523850 16.362009 -0.626483 -0.761428 -5.451087 -0.962889 0.773831 7.614206 0.690771 -1.068650 -6.225751 -9.490620 -58.888942 -85.459549 87.962158 -1.464432 2.665255 -19.389514 -5.881328 9.130059 -1.011102 12.912240 -4.647412 4.675466 100.264981 -78.298102 -132.409082 -4.265874 8.737510 6.513784 -17.249384 -62.602634 7.950815 -31.736803 72.707582 -31.732366 -2.942807 -7.372127 -2.290631 -0.476577 0.825838 -0.221481 -1.308185 -65.239211 17.002634 42.849350 65.635923 36.026100 -17.642403 -10.844141 3.233391 -0.066213 -0.957511 -0.070032
-208.447376 57.509254 -68.403314 160.356292 -9.377889 0.353350 5.157417 9.150800 0.280206 0.308425 0.585133 -0.053131 0.541579 1.037313 -0.108943 4.507272 8.630545 -0.470259 -0.539351 16.293035 -0.601974 -0.772262 -5.475320 -0.953635 0.779056 7.655712 0.692197 -1.057011 -6.328015 -9.462070 -57.727284 -85.516276 86.694135 -1.407628 2.743294 -19.267164 -5.881525 9.164132 -1.001513 12.898131 -4.585527 4.655697 100.279795 -78.328679 -132.423280 -4.297921 8.749812 6.447696 -17.215101 -62.564219 7.939876 -31.717446 72.691462 -31.717214 -2.942050 -7.354204 -2.287547 -0.482553 0.825182 -0.220122 -1.315344 -65.203264 17.020771 42.865935 65.633139 36.045030 -17.638607 -10.863710 3.238071 -0.066984 -0.964008 -0.068687
-208.453708 57.508326 -68.395030 160.346222 -9.403823 0.348813 5.173291 9.197033 0.260053 0.311648 0.581882 -0.042645 0.542777 1.045779 -0.106717 4.521250 8.668886 -0.473564 -0.551235 16.252510 -0.589890 -0.782517 -5.495696 -0.944978 0.793172 7.723301 0.687403 -1.046345 -6.426677 -9.435467 -56.696218 -85.585802 85.532969 -1.325969 2.849021 -19.140153 -5.873487 9.219119 -1.001090 12.888332 -4.522389 4.630834 100.297997 -78.356474 -132.453627 -4.335040 8.763952 6.371764 -17.194614 -62.539614 7.934998 -31.681120 72.677719 -31.686944 -2.949602 -7.334010 -2.282938 -0.476873 0.822860 -0.218823 -1.331776 -65.181501 17.034079 42.873449 65.626779 36.066954 -17.662344 -10.885459 3.239509 -0.052111 -0.964321 -0.072242
-208.456738 57.507639 -68.386992 160.333058 -9.429500 0.324113 5.190663 9.223379 0.285668 0.313658 0.596863 -0.054610 0.549052 1.051736 -0.104993 4.525317 8.675000 -0.468892 -0.554764 16.269806 -0.598893 -0.798962 -5.527596 -0.934122 0.818089 7.820276 0.674904 -0.946290 -6.436082 -9.404564 -56.590981 -85.719282 85.172747 -1.223464 2.973763 -19.019316 -5.855390 9.300906 -1.010708 12.879054 -4.459233 4.601739 100.346591 -78.380151 -132.519532 -4.375679 8.780599 6.287071 -17.203684 -62.509985 7.977171 -31.696188 72.657490 -31.706169 -2.961000 -7.309139 -2.282600 -0.466303 0.812115 -0.211748 -1.388262 -65.161504 17.095138 42.857077 65.627198 36.071329 -17.647354 -10.904772 3.223301 -0.059986 -0.992884 -0.058983
